<?xml version="1.0" encoding="UTF-8" standalone="no"?> <svg id="Layer_1" data-name="Layer 1" xmlns="http://www.w3.org/2000/svg" viewBox="0 0 128 128"><defs><style>.cls-1{fill:#2d3e50;}.cls-2{fill:#1d75b8;}</style></defs><title>a</title><path class="cls-1" d="M121.64116,66.27734H64.06011a4.86076,4.86076,0,0,0-4.8553,4.8553v39.75914a4.85873,4.85873,0,0,0,4.8553,4.8511H82.47117l-3.20392,8.17844a1.835,1.835,0,0,0,1.70828,2.50417h23.63055a1.83485,1.83485,0,0,0,1.71557-2.48526l-3.1072-8.19736h18.42671a4.85873,4.85873,0,0,0,4.8553-4.8511V71.13264A4.86076,4.86076,0,0,0,121.64116,66.27734Zm-1.1928,40.75911H65.25315V72.758a.44912.44912,0,0,1,.06089-.239h55.07163a.436.436,0,0,1,.06269.239Z"/><path class="cls-1" d="M45.51321,51.04H63.93989a4.85874,4.85874,0,0,0,4.8553-4.85113V6.42977a4.86073,4.86073,0,0,0-4.8553-4.85527H6.35884a4.86073,4.86073,0,0,0-4.8553,4.85527V46.18891A4.85874,4.85874,0,0,0,6.35884,51.04H24.76968L21.566,59.21825a1.83465,1.83465,0,0,0,1.70828,2.50417H46.9046a1.83483,1.83483,0,0,0,1.71578-2.485ZM7.55164,42.33358V8.05519a.44892.44892,0,0,1,.06092-.23906H62.68419a.43605.43605,0,0,1,.06266.23906V42.33358Z"/><path class="cls-2" d="M95.37182,33.66295a43.84979,43.84979,0,0,1,7.46131,13.63077L97.145,48.30559l12.0884,10.33484,3.53664-6.587.17191-.32418,3.69874-6.89154-5.53582.9824A51.45185,51.45185,0,0,0,100.70624,29.026,50.80522,50.80522,0,0,0,79.11315,15.1988l-1.82728,5.0839A44.58388,44.58388,0,0,1,95.37182,33.66295Z"/><path class="cls-2" d="M27.17054,91.70093a43.85,43.85,0,0,1-7.0328-13.85673l5.71687-.83408L14.09426,66.30348,10.354,72.777l-.18192.31866L6.26029,79.86857l5.56376-.80935A51.4521,51.4521,0,0,0,21.69417,96.1693a50.80522,50.80522,0,0,0,21.15156,14.49364l1.98485-5.02448A44.58355,44.58355,0,0,1,27.17054,91.70093Z"/></svg>